<svg width="128" height="128" xmlns="http://www.w3.org/2000/svg">
    <path id="svg_20" d="m19.997891,44.623931c1.625,13.000206 13.500597,16.625425 14.000694,18.375986c0.500098,1.75056 -8.375474,8.875523 -6.375413,21.626059c2.000061,12.750536 8.875547,13.875499 8.750547,15.000791c-0.125,1.125292 -9.500731,5.875389 -6.625341,13.000694c1.437695,3.562652 8.375366,4.375043 13.344283,2.187407c4.968918,-2.187636 7.844082,-8.375297 9.031765,-7.312748c1.187683,1.062549 -0.937372,3.375217 -0.578037,7.422253c0.359335,4.047036 3.702817,8.703418 11.328304,7.078466c7.625487,-1.624952 8.875414,-11.625304 9.750743,-12.500621c0.437664,-0.437658 11.31324,0.312293 22.704381,-1.953408c11.39114,-2.265702 24.297847,-9.422055 22.672774,-12.922323c-1.625073,-3.500268 -6.781643,-1.594002 -14.000727,-2.937768c-7.219084,-1.343766 -16.125551,-5.812171 -19.000819,-12.31295c-2.875268,-6.500779 2.00017,-10.000244 1.500085,-12.375621c-0.500085,-2.375377 -3.375231,-3.125061 -3.750244,-5.625292c-0.375013,-2.500231 4.000439,-4.000122 3.375305,-6.750305c-0.625134,-2.750183 -4.750171,-3.124853 -4.875365,-5.750243c-0.125194,-2.62539 5.50045,-5.250037 3.750426,-8.625426c-1.750024,-3.375389 -6.000536,-0.624903 -7.250609,-4.250183c-1.250073,-3.62528 5.250584,-7.25028 3.125243,-10.00056c-2.125341,-2.75028 -6.750353,1.000098 -9.375547,-1.625073c-2.625194,-2.625171 2.000584,-10.125463 -1.000025,-11.875633c-3.000609,-1.75017 -9.874939,6.375329 -12.875414,5.125377c-3.000475,-1.249952 -2.749756,-7.000511 -5.375474,-6.875377c-2.625718,0.125134 -4.875743,6.594088 -12.922912,13.125644c-8.047169,6.531557 -20.953623,7.750648 -19.328623,20.750854z" stroke-opacity="null" stroke-width="null" stroke="null" fill="#000000"/>
    <ellipse stroke="null" id="svg_9" fill="#ffffff" ry="10.624972" rx="8.97914" cy="42.665807" cx="56.104536"/>
    <ellipse stroke="null" id="svg_10" fill="#000000" ry="5.562575" rx="4.312437" cy="42.728309" cx="56.312833"/>
</svg>