<svg width="128" height="128" xmlns="http://www.w3.org/2000/svg">
    <path id="svg_25" d="m38.377703,40.252503c-0.999895,14.498469 11.498787,21.247758 11.748761,22.7476c0.249973,1.499841 -11.748761,1.249868 -17.998101,11.498786c-6.249341,10.248919 -3.749605,16.748234 -1.749816,18.498049c1.999789,1.749815 6.749287,2.499737 9.748971,-0.999894c2.999684,-3.499631 0.749923,-8.24913 2.999684,-12.998629c2.249762,-4.749499 4.7495,-5.999367 5.249446,-4.499525c0.499946,1.499842 -1.499841,4.249551 0,11.498787c1.499841,7.249236 4.999473,16.248285 2.249763,17.998101c-2.749709,1.749815 -10.998839,1.249867 -10.748866,7.749182c0.249974,6.499314 6.749287,8.499103 12.498681,7.499209c5.749394,-0.999894 8.999051,-6.499315 9.498999,-9.498998c0.249973,-1.499842 -0.874909,-9.936452 -0.218728,-10.280166c0.656181,-0.343714 2.093529,0.156234 3.468384,0.031247c2.74971,-0.249974 5.249448,-1.249867 5.999368,0.499948c0.74992,1.749815 3.249657,6.24934 -0.249975,7.749182c-3.499631,1.499842 -8.499103,6.999261 -4.999472,11.74876c3.499631,4.749499 13.748549,2.749711 17.998101,-2.999683c4.249552,-5.749394 -2.499736,-15.998312 -3.249657,-21.247759c-0.749921,-5.249446 0.249975,-6.99926 0.499947,-10.498893c0.249972,-3.499632 -0.999895,-9.249023 -0.499947,-9.74897c0.499948,-0.499947 3.999578,0.999894 6.249341,3.999577c2.249763,2.999684 1.999789,7.749183 0.999894,9.498998c-0.999895,1.749815 -1.749815,5.749395 0,9.249025c1.749815,3.49963 8.749077,6.24934 12.998629,-1.499842c4.249552,-7.749182 -2.249764,-19.997891 -7.999156,-25.247336c-5.749392,-5.249446 -11.498787,-6.499315 -11.248813,-7.749183c0.249974,-1.249868 12.748655,-6.999262 12.248707,-21.247759c-0.499948,-14.248497 -13.248602,-19.747916 -13.498575,-20.497837c-0.249973,-0.749921 5.249445,-2.74971 6.24934,-7.249235c0.999894,-4.499525 -2.74971,-8.749077 -6.999261,-7.999156c-4.249551,0.749921 -11.498788,10.99884 -12.248708,10.99884c-0.74992,0 -6.499315,-11.498787 -10.248919,-12.498682c-3.749604,-0.999895 -7.749182,0.499948 -8.24913,5.249447c-0.499947,4.749498 5.249446,9.998945 4.749499,9.998945c-0.499947,0 -14.248496,5.749393 -15.248391,20.247863z" stroke-opacity="null" stroke-width="null" stroke="null" fill="#000000"/>
    <path id="svg_8" d="m80.623246,53.633903" opacity="0.5" stroke-width="1.5" stroke="#000" fill="#fff"/>
    <ellipse stroke="null" cx="70.833804" cy="45.002059" rx="7.500422" ry="9.000474" fill="#ffffff" id="svg_17"/>
    <ellipse stroke="null" cx="70.708818" cy="45.002006" rx="3.37533" ry="4.250396" fill="#000000" id="svg_18"/>
    <ellipse stroke="null" cx="49.83602" cy="43.00227" rx="7.500422" ry="9.000474" fill="#ffffff" id="svg_26"/>
    <ellipse stroke="null" cx="49.711034" cy="43.002217" rx="3.37533" ry="4.250396" fill="#000000" id="svg_27"/>
</svg>