<svg width="128" height="128" xmlns="http://www.w3.org/2000/svg">
    <path id="svg_11" d="m6.834224,75.333154c0,0 4.666494,-24.666238 29.666204,-35.666111c24.99971,-10.999873 52.33252,-11.333156 54.665816,-8.333203c2.333296,2.999953 -4.668584,20.33103 -4.500925,20.332023c0.167659,0.000993 8.167534,7.334212 7.999875,7.333219c0.167659,0.000993 -0.289876,-6.270489 8.043327,-11.499179c8.333203,-5.22869 17.723345,-7.293803 18.206089,-6.999479c0.482745,0.294325 0.231519,15.43654 -3.685614,22.31152c-3.917132,6.874981 -8.481857,7.185974 -8.439109,7.624153c0.042748,0.438178 4.209701,1.584828 7.876311,6.251422c3.666609,4.666594 4.519928,14.249603 4.35227,14.248611c0.167658,0.000992 -14.789301,3.334976 -20.455879,0.813611c-5.666578,-2.521366 -5.52401,-8.232033 -6.043358,-8.355951c-0.519347,-0.123918 -4.269464,3.627605 -9.229389,6.77352c-4.959925,3.145916 -9.709206,5.413369 -9.791367,5.789092c-0.082162,0.375723 5.084777,10.20574 -3.080007,14.624622c-8.164783,4.418881 -15.671225,-7.937998 -16.627757,-7.999462c-0.956532,-0.061463 -15.519815,4.209348 -33.186207,-6.457153c-17.666391,-10.666501 -15.64537,-18.605326 -15.77028,-20.791255z" stroke-opacity="null" stroke-width="null" stroke="null" fill="#000000"/>
    <ellipse stroke="null" id="svg_9" fill="#ffffff" ry="11.333331" rx="9.166664" cy="72.666218" cx="38.167012"/>
    <ellipse stroke="null" id="svg_10" fill="#000000" ry="6.625073" rx="4.312437" cy="72.666221" cx="38.187809"/>
</svg>