<svg width="128" height="128" xmlns="http://www.w3.org/2000/svg">
    <path id="svg_17" d="m64.875046,9.497348c13.75067,0.500024 34.251669,7.500367 37.251815,33.001608c3.000146,25.50124 -18.250889,49.502409 -18.250889,53.502604c0,4.000195 15.250742,5.250256 8.000389,19.50095c-2.645962,2.479287 -5.541936,5.208587 -13.688165,3.187655c-8.00039,-2.437618 -10.187997,-9.062941 -13.313149,-8.437911c-11.250549,9.000438 -15.750767,11.750573 -23.501145,7.500366c-3.875189,-2.125104 -5.062745,-6.750329 -3.687679,-11.781824c1.375066,-5.031495 9.812978,-7.719126 9.937983,-10.219248c0.125006,-2.500122 -21.251035,-24.001169 -19.500949,-50.502459c1.750086,-26.50129 23.00112,-36.251766 36.751789,-35.751741z" stroke-opacity="null" stroke-width="null" stroke="null" fill="#000000"/>
    <ellipse stroke="null" id="svg_9" fill="#ffffff" ry="10.124972" rx="8.66664" cy="37.915807" cx="45.167036"/>
    <ellipse stroke="null" id="svg_10" fill="#000000" ry="5.562575" rx="4.312437" cy="37.978309" cx="45.187833"/>
    <ellipse stroke="null" id="svg_14" fill="#ffffff" ry="10.249979" rx="8.541634" cy="38.040801" cx="76.417182"/>
    <ellipse stroke="null" id="svg_15" fill="#000000" ry="5.562575" rx="4.312437" cy="37.978296" cx="76.562985"/>
</svg>