<svg width="128" height="128" xmlns="http://www.w3.org/2000/svg">
    <path id="svg_13" d="m62.04159,14.9589c16.836748,0.121984 22.70892,6.375069 26.459188,10.833596c3.750268,4.458527 5.921729,11.208887 6.83607,12.375597c0.914341,1.166711 12.83134,-0.833343 16.873199,1.916708c4.041859,2.750051 9.917138,17.084377 11.375408,32.417915c1.458271,15.333537 1.166785,34.29302 -17.667243,36.417977c-9.417014,1.062478 -16.499389,-2.58354 -20.77989,-8.057676c-4.280501,-5.474136 -3.259134,-12.651388 -2.468647,-12.901387c0.790487,-0.249999 1.519086,2.968797 3.487581,4.291759c1.968496,1.322962 5.17689,0.750089 6.926974,-0.083265c3.500169,-1.666708 2.629987,-4.583573 2.585964,-4.833571c-0.044023,-0.249998 -6.669184,2.000114 -8.169259,-3.750011c-1.500075,-5.750126 1.124958,-9.208775 6.958507,-10.208812c2.916774,-0.500018 6.802306,0.541648 7.646147,-0.020888c0.843841,-0.562535 3.604316,-3.604287 3.520971,-9.521096c-0.083345,-5.916809 -1.083325,-11.750541 -5.000166,-11.792194c-3.916841,-0.041653 -7.328963,0.250056 -7.747985,0.750056c-0.419021,0.5 -6.753279,16.813215 -30.128552,16.958974c-23.375273,0.145759 -30.073465,-16.687583 -31.18796,-17.291772c-0.139312,-0.075524 -3.76559,-2.40918 -7.22131,1.512603c-3.455719,3.921783 -1.240891,18.973997 2.052027,19.545283c3.292918,0.571286 7.038925,-2.088379 11.895556,2.409576c4.85663,4.497955 3.073896,8.778545 -0.315677,11.105362c-3.389573,2.326818 -6.135992,-1.425129 -6.581726,0.257728c-0.445734,1.682857 1.062193,6.753098 7.097379,5.866604c6.035186,-0.886494 6.314361,-6.046616 7.212124,-5.352274c0.448882,0.34717 1.614909,5.345451 -1.142582,10.667115c-2.757491,5.321664 -5.818284,8.701008 -16.55871,10.482418c-5.370213,0.890705 -10.898375,-0.347937 -16.397036,-4.809286c-5.498661,-4.461349 -5.467832,-15.145398 -5.72005,-21.645526c-0.504436,-13.000258 2.983931,-40.139778 10.589713,-42.540522c7.605783,-2.400745 13.091784,-0.330681 13.665714,-2.26366c0.57393,-1.932979 6.337604,-22.816102 31.988741,-22.65204" stroke-opacity="null" stroke-width="null" stroke="null" fill="#000000"/>
    <ellipse stroke="null" id="svg_9" fill="#ffffff" ry="10.624997" rx="9.166664" cy="47.41627" cx="44.417"/>
    <ellipse stroke="null" id="svg_10" fill="#000000" ry="5.562575" rx="4.312437" cy="47.478772" cx="44.437797"/>
    <ellipse stroke="null" id="svg_14" fill="#ffffff" ry="10.624997" rx="9.166664" cy="47.66627" cx="71.541944"/>
    <ellipse stroke="null" id="svg_15" fill="#000000" ry="5.562575" rx="4.312437" cy="47.728771" cx="71.562741"/>
</svg>