<svg width="128" height="128" xmlns="http://www.w3.org/2000/svg">
    <path id="svg_22" d="m63.249551,17.498631c18.00059,0.124503 41.127004,11.499683 42.377045,32.500372c1.250041,21.000688 -20.746718,31.005747 -20.623811,31.253659c0.122908,0.247913 -1.25264,10.747409 0.497727,13.123065c1.750366,2.375656 9.376657,-1.25004 18.5013,3.875551c9.124644,5.125592 8.87456,14.000999 -0.376052,18.625958c-9.250612,4.624959 -30.000522,3.749659 -33.125817,-7.751103c-3.125295,-11.500763 3.879591,-23.246801 3.002774,-24.123579c-0.876817,-0.876778 -2.752458,0.9984 -8.00263,0.9984c-5.250172,0 -7.371625,-0.996304 -8.373408,-0.498461c-1.001783,0.497843 3.248357,8.123132 1.873195,17.998417c-1.375161,9.875286 -8.749515,14.625903 -22.875556,14.000922c-14.126041,-0.624982 -19.125744,-8.000031 -17.875703,-14.500244c0.62502,-3.250106 5.031502,-6.499732 10.781546,-8.687091c5.750044,-2.187359 12.592795,0.062387 15.218922,-2.188535c2.626127,-2.250922 1.379279,-9.496428 0.752392,-10.123275c-0.626887,-0.626847 -21.752926,-7.37969 -23.002967,-28.627842c-1.250041,-21.248152 23.250453,-36.000717 41.251043,-35.876214z" stroke-opacity="null" stroke-width="null" stroke="null" fill="#000000"/>
    <ellipse stroke="null" id="svg_9" fill="#ffffff" ry="11.874627" rx="9.916381" cy="56.786913" cx="40.546327"/>
    <ellipse stroke="null" id="svg_10" fill="#000000" ry="6.812231" rx="4.999747" cy="56.849416" cx="40.379726"/>
    <ellipse stroke="null" id="svg_23" fill="#ffffff" ry="11.874627" rx="9.916381" cy="56.786913" cx="72.787439"/>
    <ellipse stroke="null" id="svg_24" fill="#000000" ry="6.812231" rx="4.999747" cy="56.849416" cx="72.87077"/>
</svg>