<svg width="128" height="128" xmlns="http://www.w3.org/2000/svg">
    <path fill-rule="nonzero" fill="#000000" id="Combined-Shape" d="m46.002031,18.380153c3.999751,0.000691 7.373609,5.124432 9.374089,9.623958c2.00048,4.499526 1.748511,9.623006 2.249763,10.498892c0.501252,0.875886 2.878287,1.00381 7.249236,4.499526c4.370949,3.495716 6.125984,8.123818 7.375853,8.123817c1.249868,0 6.868076,-3.999578 18.866811,-2.999683c11.998734,0.999894 21.252325,9.62431 21.752272,18.873334c0.499948,9.249024 -2.749709,13.248603 -3.249656,14.498471c-0.499948,1.249868 8.520518,9.577554 9.626125,17.392441c1.105607,7.814887 -3.92959,12.911507 -9.678983,13.411454c-5.749394,0.499947 -9.77467,-1.87266 -10.196062,-1.556981c-0.421392,0.315679 -1.459834,3.889583 -7.999156,5.249446c-6.539322,1.359863 -9.757537,-3.061107 -10.007511,-2.561159c-0.249974,0.499948 -5.490853,3.811027 -8.240563,3.811027c-2.74971,-0.000001 -10.748866,1.999789 -12.248708,-5.999367c-1.499842,-7.999156 10.748866,-8.499103 10.748866,-10.248919c0,-1.749815 -4.249553,-11.498787 -4.999473,-11.74876c-15.124026,8.43278 -32.32309,4.426717 -32.287668,3.387447c0.035421,-1.03927 3.290727,8.86126 2.540806,12.610865c-0.749921,3.749605 -2.74971,7.749183 -10.498892,8.999051c-7.749182,1.249868 -12.998629,-2.999684 -11.498787,-8.999051c1.499842,-5.999367 11.248813,-5.749394 11.998734,-6.749288c0.749921,-0.999894 0,-7.749183 -0.999894,-8.999051c-0.999895,-1.249868 -13.373669,-7.245972 -12.997077,-24.244831c0.376592,-16.998859 15.996762,-24.000078 16.496708,-24.250052c0.499946,-0.249974 -2.125987,-7.245996 -4.749154,-8.997326c-2.623167,-1.75133 -5.750737,-2.997073 -6.00071,-5.998062c-0.249973,-3.000989 2.1252,-5.123864 5.750834,-4.999376c3.625634,0.124488 8.248722,5.245102 9.998502,8.495977c1.74978,3.250875 3.061955,7.81179 3.624627,8.249077c0.562672,0.437287 2.811619,-0.281099 5.029381,-0.546488c2.217762,-0.26539 5.404165,0.047193 5.592143,-0.952966c0.187979,-1.00016 -0.623233,-5.374083 -2.498009,-7.124055c-1.874776,-1.749972 -4.997414,-1.870471 -5.749746,-5.121373c-0.752332,-3.250903 1.625548,-5.628686 5.625299,-5.627995zm31.246822,73.117339c-0.375053,0.187513 1.505254,2.842416 2.968512,5.483828c1.463258,2.641412 2.206661,5.256406 2.530855,5.514959c0.324194,0.258553 2.427461,-0.962312 3.957478,-1.464397c1.530018,-0.502086 3.763771,-0.579631 4.03093,-0.846763c0.267159,-0.267131 -1.863962,-6.687944 -2.863856,-7.187891c-0.499947,-0.249974 -3.187151,-0.156164 -5.71813,-0.702983c-2.53098,-0.546819 -4.530736,-0.984266 -4.905789,-0.796753zm26.376147,-4.122492l-7.4375,4.125c3.564797,4.450569 3.817887,7.875 4.0625,7.875c0.244613,0 5.628232,-2.87931 8.551726,-2.070042c2.923494,0.809268 -3.364226,-9.304958 -5.176726,-9.929958l0,0z"/>
    <ellipse ry="10.312974" rx="8.375422" cy="68.312158" cx="26.336785" fill-rule="nonzero" fill="#FFFFFF" stroke="#000000" id="svg_26"/>
    <ellipse ry="5.312895" rx="3.56283" cy="68.437107" cx="26.399299" fill-rule="nonzero" fill="#000000" stroke="#000000" id="svg_27"/>
    <ellipse ry="10.312974" rx="8.375422" cy="68.187158" cx="51.711785" fill-rule="nonzero" fill="#FFFFFF" stroke="#000000" id="svg_36"/>
    <ellipse ry="5.312895" rx="3.56283" cy="68.312107" cx="51.774299" fill-rule="nonzero" fill="#000000" stroke="#000000" id="svg_37"/>
</svg>