<svg width="128" height="128" xmlns="http://www.w3.org/2000/svg">
    <path id="svg_29" d="m35.128046,47.751712c12.248707,-0.999896 26.747178,16.998207 26.747178,17.998101c0,0.999894 7.249235,-19.497943 14.998418,-26.997152c7.749182,-7.499209 15.248391,-16.49826 25.747283,-14.998418c10.498893,1.499842 17.498155,16.998208 14.998419,23.747495c-2.499737,6.749288 -21.24776,13.748549 -27.997048,14.998417c-6.749288,1.249869 -22.747599,5.249446 -21.747705,6.749288c0.999894,1.499842 9.998945,-0.749921 14.998418,3.999578c4.999472,4.749499 7.999156,11.998735 3.249657,21.99768c-4.749499,9.998945 -13.248602,16.248286 -17.998101,16.498259c-4.7495,0.249974 -3.499631,-7.999156 -3.249657,-9.498998c0.249974,-1.499842 -4.499526,-3.249657 -5.749393,-2.499736c-1.249868,0.74992 -5.249448,10.248919 -10.498893,9.998945c-5.249446,-0.249974 -3.249657,-12.498681 -4.499525,-12.498681c-1.249869,0 -1.99979,10.498892 -7.249236,6.749288c-5.249446,-3.749604 -6.999262,-17.248181 -8.499103,-17.748128c-1.499841,-0.499947 -11.248814,1.499842 -17.248181,-7.499208c-5.999367,-8.99905 2.999684,-10.748867 6.249341,-16.49826c3.249658,-5.749394 5.499421,-13.498575 17.748128,-14.49847z" stroke-opacity="null" stroke-width="null" stroke="null" fill="#000000"/>
    <path id="svg_8" d="m80.623246,53.633903" opacity="0.5" stroke-width="1.5" stroke="#000" fill="#fff"/>
    <ellipse stroke="null" cx="42.586785" cy="67.749659" rx="7.500422" ry="9.000474" fill="#ffffff" id="svg_26"/>
    <ellipse stroke="null" cx="42.461799" cy="67.749606" rx="3.37533" ry="4.250396" fill="#000000" id="svg_27"/>
    <path id="svg_30" d="m45.126991,27.253874c2.249763,-2.499736 13.74855,1.999789 15.748339,10.248918c1.999789,8.24913 1.749815,20.497838 0.249973,19.99789c-1.499842,-0.499947 -10.248918,-11.998733 -12.748655,-17.248179c-2.499736,-5.249447 -5.49942,-10.498893 -3.249657,-12.998629z" stroke-opacity="null" stroke-width="null" stroke="null" fill="#000000"/>
    <path id="svg_31" d="m97.871427,65.999786c5.499419,-0.249973 10.998839,0.499947 10.498892,3.749605c-0.499947,3.249657 -2.499736,8.749077 -7.499209,9.498997c-4.999472,0.749921 -18.748021,-10.248919 -19.247969,-11.248813c-0.499948,-0.999894 10.748866,-1.749815 16.248286,-1.999789z" stroke-opacity="null" stroke-width="null" stroke="null" fill="#000000"/>
</svg>