<svg width="128" height="128" xmlns="http://www.w3.org/2000/svg">
    <path id="svg_9" d="m105.62062,64.38277c11.24881,15.99831 2.49973,16.24829 1.74981,26.24724c-0.74992,9.99894 3.99957,13.99851 3.49963,18.49803c-0.49994,4.49953 -1.49985,9.24904 -9.74898,9.74898c-8.24913,0.49994 -11.99873,-2.24976 -12.2487,-4.99947c-0.24997,-2.74971 6.49931,-5.99937 6.74929,-9.74898c0.24998,-3.74961 -1.9998,-8.24912 -8.24914,-9.99894c-6.24934,-1.74982 -11.99873,0 -12.99862,2.99968c-0.9999,2.99969 2.49973,8.49911 1.74981,17.49816c-0.74992,8.99905 -8.49911,7.99916 -12.74865,7.99915c-4.24955,0 -10.99885,-2.24975 -9.24903,-6.74928c1.74982,-4.49953 6.49931,-0.24998 7.99916,-8.74908c1.49984,-8.4991 -9.499,-15.99832 -11.49879,-13.99852c-1.99979,1.9998 1.49984,6.24934 1.99979,13.99852c0.49995,7.74918 -9.499,7.24923 -13.2486,7.49921c-3.7496,0.24998 -7.24924,0 -7.74919,-4.49953c-0.49994,-4.49953 9.74898,-6.24934 9.24902,-12.99863c-0.49995,-6.74929 -6.4993,-12.49868 -7.99914,-18.24807c-1.49984,-5.74938 -0.9999,-7.99915 -3.74961,-9.99894c-2.74971,-1.99979 -17.49815,-7.49921 -18.24807,-16.49827c-0.74992,-8.99905 5.99936,-6.74928 8.4991,-12.2487c2.49973,-5.49942 7.24924,-8.24914 8.49911,-14.49847c1.24987,-6.24934 1.7498,-19.24798 6.4993,-18.24808c4.7495,0.99989 5.49942,18.24807 9.499,17.9981c3.99958,-0.24997 3.24967,-17.49816 7.24924,-17.74813c3.99957,-0.24997 15.49836,22.49763 15.9983,32.74655c0.49995,10.24891 -1.49983,10.99885 0.24998,13.49858c1.74982,2.49973 26.99715,-5.49943 38.24597,10.49889z" stroke-width="0" stroke="#000" fill="#000000"/>
    <path id="svg_8" d="m80.623246,53.633903" opacity="0.5" stroke-width="1.5" stroke="#000" fill="#fff"/>
    <ellipse stroke="null" cx="43.336704" cy="46.376914" rx="8.000369" ry="9.375435" fill="#ffffff" id="svg_10"/>
    <ellipse stroke="null" cx="43.586677" cy="46.501849" rx="3.250343" ry="4.500369" fill="#000000" id="svg_11"/>
</svg>