<?xml version="1.0" encoding="utf-8"?>
<svg id="master-artboard" viewBox="0 0 128 128" version="1.1" xmlns="http://www.w3.org/2000/svg" x="0px" y="0px" style="enable-background:new 0 0 1400 980;" width="128px" height="128px">
    <path d="M 124.47472381591797 185.7783203125 C 119.16243743896484 176.0546875 127.30716705322266 155.8466796875 146.919921875 151.33250427246094 C 166.5508099283077 146.8141552169153 183.43678283691406 159.11422729492188 183.27903747558594 176.59088134765625 C 183.1212921142578 194.06753540039062 156.94131469726562 211.12100219726562 169.12306213378906 215.3257293701172 C 181.3048095703125 219.53045654296875 180.19811284936986 186.51158638776207 198.81739807128906 185.5437469482422 C 205.1782989501953 185.21310424804688 213.1811981201172 188.0071563720703 216.87506103515625 201.9460906982422 C 220.5689239501953 215.88502502441406 218.5221710205078 221.31326293945312 220.7271728515625 227.10565185546875 C 222.9321746826172 232.89804077148438 227.11349487304688 231.82908630371094 225.17515563964844 235.09051513671875 C 223.23681640625 238.35194396972656 214.58221435546875 235.799072265625 210.56005859375 229.4224395751953 C 206.53790283203125 223.04580688476562 207.7201385498047 210.01327514648438 199.85916137695312 211.51585388183594 C 191.99818420410156 213.0184326171875 195.70953369140625 247.51596069335938 157.51480102539062 243.04579162597656 C 140.08029174804688 241.0053253173828 135.68829345703125 222.8881378173828 138.06381225585938 212.84527587890625 C 140.89248657226562 200.88670349121094 151.82431030273438 195.49227905273438 150.072021484375 192.61338806152344 C 146.84815979003906 187.31678771972656 130.74172517838983 197.24946771684318 124.47472381591797 185.7783203125 Z" style="fill-opacity: 1; stroke: rgb(0, 0, 0); stroke-opacity: 1; stroke-width: 0; paint-order: fill; fill: rgb(0, 0, 0);" transform="matrix(1, 0, 0, 1, -107.67281581872953, -133.0075956630564)"/>
    <path d="M 33 41.5 A 11.5 13.5 0 0 1 21.5 55 A 11.5 13.5 0 0 1 10 41.5 A 11.5 13.5 0 0 1 21.5 28 A 11.5 13.5 0 0 1 33 41.5 Z" fill="#ffffff" stroke="none" pointer-events="all" transform="matrix(0.7008769512176514, 0, 0, 0.7008769512176514, 37.54193115234375, 8.826922416687012)" style="fill-opacity: 1;"/>
    <path d="M 28 41 A 6.5 8 0 0 1 21.5 49 A 6.5 8 0 0 1 15 41 A 6.5 8 0 0 1 21.5 33 A 6.5 8 0 0 1 28 41 Z" fill="#000000" stroke="none" pointer-events="all" transform="matrix(0.7008769512176514, 0, 0, 0.7008769512176514, 37.54193115234375, 8.826922416687012)" style="fill-opacity: 1;"/>
    <path style="fill: rgb(0, 0, 0); fill-opacity: 1; stroke: rgb(0, 0, 0); stroke-opacity: 1; stroke-width: 0; paint-order: stroke;"/>
    <path style="fill: rgb(0, 0, 0); fill-opacity: 1; stroke: rgb(0, 0, 0); stroke-opacity: 1; stroke-width: 0; paint-order: stroke;"/>
</svg>