<svg width="128" height="128" xmlns="http://www.w3.org/2000/svg">
    <path id="svg_16" d="m63.62504,14.755192c24.997362,0.749921 39.495834,14.248497 39.745807,30.246809c0.249973,15.998312 -7.749183,18.748023 -7.749183,22.997575c0,4.249551 0.999894,6.749287 5.749393,12.498681c4.749499,5.749393 9.498998,7.249235 9.998945,10.748866c0.499948,3.49963 -1.499842,6.999261 -5.249446,7.749182c-3.749605,0.749921 -13.998523,-10.248918 -16.248286,-13.998523c-2.249763,-3.749605 -4.249551,-10.498892 -5.499419,-9.748972c-1.249869,0.749921 -0.499947,7.249236 3.499631,17.248181c3.999578,9.998945 6.249339,10.748865 7.249234,14.748444c0.999895,3.999578 -2.499736,7.499208 -6.24934,7.249235c-3.749604,-0.249973 -9.498998,-8.749077 -12.248708,-18.748022c-2.74971,-9.998946 -4.499526,-15.748338 -5.999367,-14.998417c-1.499841,0.74992 0.249973,10.99884 0.749921,17.998101c0.499947,6.999261 2.74971,15.998312 -0.74992,17.9981c-3.499631,1.999789 -7.749183,1.99979 -9.498998,-1.499841c-1.749815,-3.499631 -2.249763,-18.748023 -1.999789,-21.99768c0.249974,-3.249657 -0.249974,-12.998628 -1.99979,-13.248601c-1.749815,-0.249974 -2.499736,10.748865 -4.999472,16.748232c-2.499736,5.999368 -6.249341,15.998313 -10.498893,17.498154c-4.249552,1.499842 -7.749182,-1.499842 -7.749182,-5.249446c0,-3.749604 5.999367,-12.498681 7.999156,-17.998101c1.999789,-5.49942 4.249551,-15.248392 2.249762,-15.998313c-1.999789,-0.749921 -1.999788,6.249342 -6.749287,12.248709c-4.749499,5.999367 -10.748867,12.248707 -13.998523,11.498787c-3.249657,-0.749921 -6.749288,-2.749711 -5.749394,-6.749289c0.999894,-3.999578 6.749288,-7.499207 10.248919,-12.248707c3.499631,-4.7495 5.249446,-11.498788 4.499525,-12.748656c-0.749921,-1.249868 -7.749183,-8.749077 -7.249235,-21.497732c0.499947,-12.748655 13.498577,-31.496677 38.495939,-30.746756z" stroke-opacity="null" stroke-width="0" stroke="#000" fill="#000000"/>
    <path id="svg_8" d="m80.623246,53.633903" opacity="0.5" stroke-width="1.5" stroke="#000" fill="#fff"/>
    <ellipse stroke="null" cx="43.211718" cy="42.502322" rx="9.375225" ry="11.250237" fill="#ffffff" id="svg_10"/>
    <ellipse stroke="null" cx="43.211717" cy="42.752244" rx="4.875171" ry="6.500159" fill="#000000" id="svg_11"/>
    <ellipse stroke="null" cx="75.208342" cy="42.502322" rx="9.375225" ry="11.250237" fill="#ffffff" id="svg_17"/>
    <ellipse stroke="null" cx="75.208341" cy="42.752244" rx="4.875171" ry="6.500159" fill="#000000" id="svg_18"/>
</svg>