<svg width="128" height="128" xmlns="http://www.w3.org/2000/svg">
    <path id="svg_14" d="m38.377703,31.7534c3.749605,-4.499526 9.498997,-8.749078 11.248813,-7.999157c1.749816,0.749921 -1.249868,1.749815 -0.499947,7.999156c0.749921,6.249341 4.999473,11.498787 6.249341,18.498049c1.249868,6.999261 -0.749921,6.999261 -0.999895,6.749288c-0.249974,-0.249973 -6.999261,-7.749183 -10.498892,-9.748971c-3.49963,-1.999789 -10.498892,-1.249869 -10.748866,-2.499737c-0.249974,-1.249868 1.499842,-8.499103 5.249446,-12.998628z" stroke-opacity="null" stroke-width="0" stroke="#000" fill="#000000"/>
    <path id="svg_13" d="m33.128256,49.001579c13.248604,-0.249973 21.747707,15.248391 22.747601,15.498365c0.999894,0.249974 12.498682,-10.248919 13.74855,-21.497732c1.249868,-11.248813 -4.749498,-21.997678 -4.749499,-22.997573c-0.000001,-0.999895 18.748021,-0.999894 28.496993,10.248919c9.748972,11.248812 14.998419,25.747283 17.248181,30.496782c2.249762,4.749498 7.499208,10.498892 6.749287,12.498681c-0.749921,1.99979 -9.249024,-1.499841 -12.498681,-3.249657c-3.249657,-1.749815 -9.512492,-10.762357 -10.380653,-11.755506c-0.868161,-0.993149 0.131733,10.00569 -4.117818,11.255559c-4.249551,1.249869 -12.248707,-8.749077 -13.748549,-8.749077c-1.499842,-0.000001 -0.999895,3.249657 -5.249446,5.749393c-4.249552,2.499737 -6.24934,1.99979 -5.999367,3.499632c0.249974,1.499841 17.748128,0.999894 20.247864,13.498575c2.499736,12.498682 -12.99863,29.746861 -20.497838,29.746862c-7.499208,0.000001 -2.74971,-7.749183 -3.999578,-9.748971c-0.624934,-0.999895 -2.874696,-2.874697 -4.468278,-2.74971c-1.593582,0.124986 -3.03093,6.499314 -8.530351,9.748971c-5.499421,3.249657 -7.249235,-4.249552 -7.249235,-8.749077c0,-4.499525 -0.999895,2.999683 -5.749393,4.749499c-4.749498,1.749816 -8.499103,-16.748233 -10.748866,-18.248075c-2.249763,-1.499842 -14.998417,-2.499737 -17.748128,-9.249025c-2.749711,-6.749288 4.499526,-9.498997 6.999262,-14.248496c2.499736,-4.749499 6.24934,-15.498365 19.497943,-15.748339z" stroke-opacity="null" stroke-width="0" stroke="#000" fill="#000000"/>
    <path id="svg_8" d="m80.623246,53.633903" opacity="0.5" stroke-width="1.5" stroke="#000" fill="#fff"/>
    <ellipse stroke="null" cx="39.087152" cy="69.124514" rx="8.000369" ry="9.375435" fill="#ffffff" id="svg_10"/>
    <ellipse stroke="null" cx="39.337125" cy="69.249449" rx="3.250343" ry="4.500369" fill="#000000" id="svg_11"/>
</svg>