<?xml version="1.0" encoding="UTF-8"?>
<svg width="1024px" height="1024px" viewBox="0 0 1024 1024" version="1.1" xmlns="http://www.w3.org/2000/svg" xmlns:xlink="http://www.w3.org/1999/xlink">
    <g stroke="none" stroke-width="1" fill="none" fill-rule="evenodd" fill-opacity="0.299360795" opacity="0.441685268">
        <path d="M358.462691,550.001825 C375.308434,619.43866 437.882819,671 512.5,671 C586.371009,671 648.438874,620.464731 666.018252,552.079534 L666.537309,550.001825 L822.716202,550.001825 C803.96235,704.945508 672.00129,825 512,825 C351.99871,825 220.03765,704.945508 201.283798,550.001825 L358.462691,550.001825 Z M512,437 C553.421356,437 587,470.578644 587,512 C587,553.421356 553.421356,587 512,587 C470.578644,587 437,553.421356 437,512 C437,470.578644 470.578644,437 512,437 Z M512,199 C672.345918,199 804.530685,319.572222 822.835808,474.999173 L666.537551,474.999173 C649.692166,405.561834 587.117539,354 512.5,354 C438.628637,354 376.560531,404.535754 358.981495,472.921449 L358.462449,474.999173 L201.164192,474.999173 C219.469315,319.572222 351.654082,199 512,199 Z" id="ball" fill="#000000"></path>
    </g>
</svg>