<?xml version="1.0" encoding="UTF-8"?>
<svg width="80px" height="80px" viewBox="0 0 80 80" version="1.1" xmlns="http://www.w3.org/2000/svg" xmlns:xlink="http://www.w3.org/1999/xlink">
    <path d="M17.9991899,45.9610877 L23.9991899,53.1110877 L24,56 L26.4221899,55.9990877 L27.5445011,57.3366172 L30.2122679,60.5163393 L31.4561899,61.9990877 L18,62 L17.9991899,45.9610877 Z M61.9991899,37.5790877 L62,62 L41.5121899,61.9990877 L43.3806364,59.7681257 L45.4209119,57.3363764 L46.5421899,55.9990877 L56,56 L55.9991899,44.7290877 L61.9991899,37.5790877 Z M62.9275962,16.2493793 L69.8219962,22.0344678 L42.3566055,54.7653793 L40.3136055,57.2003793 L37.1539784,60.9743788 L35.817871,60.9743788 L33.2766055,57.9453793 L30.6086055,54.7653793 L18.4626055,40.2911789 L25.3570055,34.5060904 L36.4826055,47.7643793 L62.9275962,16.2493793 Z M56.2381899,17.9990877 L51.2031899,23.9990877 L24,24 L23.9991899,30.4230877 L17.9991899,35.4580877 L18,18 L56.2381899,17.9990877 Z" id="checked" fill="#888888"></path>
</svg>