<?xml version="1.0" encoding="UTF-8"?>
<svg width="80px" height="80px" viewBox="0 0 80 80" version="1.1" xmlns="http://www.w3.org/2000/svg" xmlns:xlink="http://www.w3.org/1999/xlink">
    <path d="M40,18 C52.1502645,18 62,27.8497355 62,40 C62,52.1502645 52.1502645,62 40,62 C27.8497355,62 18,52.1502645 18,40 C18,27.8497355 27.8497355,18 40,18 Z M40,24 C31.163444,24 24,31.163444 24,40 C24,48.836556 31.163444,56 40,56 C48.836556,56 56,48.836556 56,40 C56,31.163444 48.836556,24 40,24 Z M40,31 C44.9705627,31 49,35.0294373 49,40 C49,44.9705627 44.9705627,49 40,49 C35.0294373,49 31,44.9705627 31,40 C31,35.0294373 35.0294373,31 40,31 Z" id="selected" fill="#888888"></path>
</svg>