<?xml version="1.0" encoding="UTF-8"?>
<svg width="80px" height="80px" viewBox="0 0 80 80" version="1.1" xmlns="http://www.w3.org/2000/svg" xmlns:xlink="http://www.w3.org/1999/xlink">
    <g id="batch" transform="translate(16.000000, 16.000000)" fill="#888888">
        <path d="M6,8.888 L6,36.0286461 C6,37.9226663 6.76770337,39.6373798 8.0089118,40.8785882 C9.25012023,42.1197966 10.9648337,42.8875 12.8588539,42.8875 L12.8588539,42.8875 L40,42.887 L40,43.8875 C40,46.6489237 37.7614237,48.8875 35,48.8875 L5,48.8875 C2.23857625,48.8875 3.38176876e-16,46.6489237 0,43.8875 L0,13.8875 C-3.38176876e-16,11.1260763 2.23857625,8.8875 5,8.8875 L6,8.888 Z"></path>
        <path d="M44,0 C46.7614237,-5.07265313e-16 49,2.23857625 49,5 L49,35 C49,37.7614237 46.7614237,40 44,40 L14,40 C11.2385763,40 9,37.7614237 9,35 L9,5 C9,2.23857625 11.2385763,5.07265313e-16 14,0 L44,0 Z M22,9 L22,32 L39,20.5 L22,9 Z"></path>
    </g>
</svg>