<?xml version="1.0" encoding="UTF-8"?>
<svg width="80px" height="80px" viewBox="0 0 80 80" version="1.1" xmlns="http://www.w3.org/2000/svg" xmlns:xlink="http://www.w3.org/1999/xlink">
    <path d="M22.0005908,25.7193293 L22,52.0286461 C22,53.9226663 22.7677034,55.6373798 24.0089118,56.8785882 C25.1847935,58.0544699 26.7856492,58.8053775 28.5613311,58.8811631 L28.8588539,58.8875 L55.1677323,58.8879128 C53.6245248,62.4195019 50.1004783,64.8875 46,64.8875 L26,64.8875 C20.4771525,64.8875 16,60.4103475 16,54.8875 L16,34.8875 C16,30.7866333 18.4684657,27.2623076 22.0005908,25.7193293 Z M60,16 C62.7614237,16 65,18.2385763 65,21 L65,51 C65,53.7614237 62.7614237,56 60,56 L30,56 C27.2385763,56 25,53.7614237 25,51 L25,21 C25,18.2385763 27.2385763,16 30,16 L60,16 Z M51.428988,25 L44.1883589,25 C43.0667102,25 42.0447854,25.6249195 41.5300988,26.6093763 L41.4446201,26.7867822 L41.0612245,27.6538462 L41.0040774,27.7990105 L41.0040774,27.7990105 L40.9591998,27.9480042 L35.5,27.9487179 C32.8112453,27.9487179 30.6181819,30.0710247 30.5046195,32.7318283 L30.5,32.9487179 L30.5,43 C30.5,45.6887547 32.6223067,47.8818181 35.2831104,47.9953805 L35.5,48 L54.25,48 C56.9387547,48 59.1318181,45.8776933 59.2453805,43.2168896 L59.25,43 L59.25,32.9487179 C59.25,30.3262104 57.2309862,28.1752687 54.6630364,27.9661502 L54.616822,27.8089978 L54.616822,27.8089978 L54.5561224,27.6538462 L54.1727268,26.7867822 C53.692443,25.7006018 52.6166161,25 51.428988,25 Z M48.2291667,30.2708333 C52.1987133,30.2708333 55.4166667,33.4887867 55.4166667,37.4583333 C55.4166667,41.42788 52.1987133,44.6458333 48.2291667,44.6458333 C44.25962,44.6458333 41.0416667,41.42788 41.0416667,37.4583333 C41.0416667,33.4887867 44.25962,30.2708333 48.2291667,30.2708333 Z M48.2291667,33.1458333 C47.0383027,33.1458333 45.9601777,33.6285263 45.1797687,34.4089353 C44.3993597,35.1893443 43.9166667,36.2674693 43.9166667,37.4583333 C43.9166667,38.6491973 44.3993597,39.7273223 45.1797687,40.5077313 C45.9601777,41.2881403 47.0383027,41.7708333 48.2291667,41.7708333 C49.4200307,41.7708333 50.4981557,41.2881403 51.2785647,40.5077313 C52.0589737,39.7273223 52.5416667,38.6491973 52.5416667,37.4583333 C52.5416667,36.2674693 52.0589737,35.1893443 51.2785647,34.4089353 C50.4981557,33.6285263 49.4200307,33.1458333 48.2291667,33.1458333 Z M36.9540816,31.3076923 C37.4669175,31.3076923 37.8895888,31.6937325 37.9473539,32.1910712 L37.9540816,32.3076923 L37.9540816,32.6666667 L37.9473539,32.7832878 C37.8940323,33.2423697 37.5297846,33.6066173 37.0707028,33.6599389 L36.9540816,33.6666667 L34.8469388,33.6666667 L34.7303177,33.6599389 C34.2712358,33.6066173 33.9069881,33.2423697 33.8536665,32.7832878 L33.8469388,32.6666667 L33.8469388,32.3076923 L33.8536665,32.1910712 C33.9069881,31.7319893 34.2712358,31.3677417 34.7303177,31.31442 L34.8469388,31.3076923 L36.9540816,31.3076923 Z" id="batch-camera" fill="#888"></path>
</svg>