<?xml version="1.0" encoding="UTF-8"?>
<svg width="80px" height="80px" viewBox="0 0 80 80" version="1.1" xmlns="http://www.w3.org/2000/svg" xmlns:xlink="http://www.w3.org/1999/xlink">
    <path d="M32.5007768,27.7067566 C34.157709,27.7067566 35.5009181,29.069757 35.5009181,30.7511031 L35.5009181,31.5121896 L59.5020479,31.5121896 C61.1589802,31.5121896 62.5021892,32.8751899 62.5021892,34.5565361 L62.5021892,61.9556537 C62.5021892,63.6369997 61.1589802,65 59.5020479,65 L19.0001413,65 C17.343209,65 16,63.6369997 16,61.9556537 L16,30.7511031 C16,29.069757 17.343209,27.7067566 19.0001413,27.7067566 L32.5007768,27.7067566 Z M36.7371392,16.095411 L59.9089509,22.3484985 C63.5653618,23.3352084 65.7408224,27.0993239 64.7679781,30.7558857 L64.7613776,30.7849043 C64.5538801,30.4898537 64.3227583,30.2131109 64.0708729,29.957514 C62.9600718,28.830346 61.4461371,28.1137328 59.7682972,28.0448894 L59.5020479,28.0394371 L38.3660501,28.0394371 C38.0458123,27.3330718 37.6045301,26.6948913 37.0696017,26.152081 C35.9588007,25.024913 34.444866,24.3082998 32.7670261,24.2394564 L32.5007768,24.2340041 L31.7330971,24.2340012 L33.384336,18.0290888 C33.7734738,16.5664641 35.2745749,15.700727 36.7371392,16.095411 Z" id="browse" fill="#888"></path>
</svg>