<?xml version="1.0" encoding="UTF-8"?>
<svg width="80px" height="80px" viewBox="0 0 80 80" version="1.1" xmlns="http://www.w3.org/2000/svg">
    <path d="M31.1612903,23.4981699 C33.0853791,23.4981699 34.6451613,25.0697418 34.6451613,27.008374 L34.6451613,27.885925 L62.516129,27.885925 C64.4402178,27.885925 66,29.4574969 66,31.3961291 L66,62.9879659 C66,64.926598 64.4402178,66.4981699 62.516129,66.4981699 L15.483871,66.4981699 C13.5597822,66.4981699 12,64.926598 12,62.9879659 L12,27.008374 C12,25.0697418 13.5597822,23.4981699 15.483871,23.4981699 L31.1612903,23.4981699 Z M36.0807054,10.1100111 L62.9886392,17.3199703 C67.2345939,18.4576704 69.7608163,22.7977854 68.6311149,27.0138885 L68.6234501,27.0473476 C68.3824966,26.7071473 68.1141098,26.3880562 67.8216114,26.0933469 C66.5317096,24.7936953 64.7736747,23.9674231 62.8253072,23.888045 L62.516129,23.8817584 L37.9722548,23.8817584 C37.6003832,23.0673024 37.0879506,22.331465 36.4667727,21.7055918 C35.1768709,20.4059402 33.418836,19.579668 31.4704685,19.5002899 L31.1612903,19.4940033 L30.2698333,19.494 L32.1873108,12.3395878 C32.6391914,10.6531466 34.3823235,9.6549311 36.0807054,10.1100111 Z" fill="#888"></path>
</svg>
