<?xml version="1.0" encoding="UTF-8"?>
<svg width="80px" height="80px" viewBox="0 0 80 80" version="1.1" xmlns="http://www.w3.org/2000/svg" xmlns:xlink="http://www.w3.org/1999/xlink">
    <path d="M50.2359624,14.870665 L56.5185831,18.4979378 L29.5185831,65.2633096 L23.2359624,61.6360368 L50.2359624,14.870665 Z M51.4032494,35.3594137 C56.700033,37.6007669 61.2192105,41.3201872 64.443666,46.0005589 C59.0328006,53.8527557 49.9782455,59 39.7214871,59 C39.072291,59 38.4279111,58.9793792 37.7889668,58.9387567 L51.4032494,35.3594137 Z M34.9307367,33.3804488 L29.2481301,43.2204543 C29.4151475,42.4659604 29.6633299,41.7419779 29.9830483,41.0581357 L29.7828432,41.1481134 C27.28116,42.2877531 25.0094793,43.844361 23.0566098,45.7291283 L22.7807546,46.000341 C23.7901267,47.006196 24.8885514,47.9227448 26.0631739,48.7371325 L23.0555146,53.9486345 C19.8941024,51.8325793 17.1573172,49.1315692 15,46.0004452 C19.5494768,39.3960257 26.6775305,34.705 34.9307367,33.3804488 Z M48.9005208,40.8178689 L48.9826433,40.9854831 C49.6348853,42.3530533 50,43.8838881 50,45.5 C50,47.7250562 49.3079006,49.788464 48.1272343,51.4866908 C51.2370151,50.3239176 54.0415103,48.533954 56.3863644,46.2708717 L56.6623172,45.9997562 C54.4558401,43.8009425 51.8238136,42.0288856 48.9005208,40.8178689 Z M40,19 C41.0575113,19 42.0996867,19.0656607 43.1226718,19.1931278 L38.7108305,26.8329503 C30.2383564,27.1295879 22.5065589,30.3386209 16.4857907,35.4896965 C19.9670078,25.8725244 29.1809218,19 40,19 Z M56.9981329,25.667815 C59.8891976,28.3497485 62.1447975,31.7071853 63.5139451,35.4891379 C60.8426069,33.2039794 57.8346803,31.3010789 54.5748263,29.8651302 L56.9981329,25.667815 Z" id="hide" fill="#888"></path>
</svg>