<?xml version="1.0" encoding="UTF-8"?>
<svg width="80px" height="80px" viewBox="0 0 80 80" version="1.1" xmlns="http://www.w3.org/2000/svg" xmlns:xlink="http://www.w3.org/1999/xlink">
    <path d="M32.5007768,27.7067566 C34.157709,27.7067566 35.5009181,29.069757 35.5009181,30.7511031 L35.5009181,31.5121896 L59.5020479,31.5121896 C61.1589802,31.5121896 62.5021892,32.8751899 62.5021892,34.5565361 L62.5021892,61.9556537 C62.5021892,63.6369997 61.1589802,65 59.5020479,65 L19.0001413,65 C17.343209,65 16,63.6369997 16,61.9556537 L16,30.7511031 C16,29.069757 17.343209,27.7067566 19.0001413,27.7067566 L32.5007768,27.7067566 Z M57,21 C60.3137085,21 63,23.6862915 63,27 L63.0011597,29.37546 C62.0795163,28.7427937 60.9820211,28.3543934 59.799419,28.2983831 L59.5020479,28.2913563 L38.2238427,28.2913563 C37.9121168,27.5566932 37.4653844,26.894879 36.9162646,26.3376683 C35.8527146,25.2584475 34.4062772,24.5704011 32.8031451,24.4931888 L32.5007768,24.4859233 L32,24.485 L32,23 C32,21.8954305 32.8954305,21 34,21 L57,21 Z" id="open" fill="#888"></path>
</svg>