<?xml version="1.0" encoding="UTF-8"?>
<svg width="80px" height="80px" viewBox="0 0 80 80" version="1.1" xmlns="http://www.w3.org/2000/svg" xmlns:xlink="http://www.w3.org/1999/xlink">
    <path d="M40.5,16 C42.9109192,16 44.9171649,22.0180278 45.3415144,29.9651399 L46.2990109,30.0135913 C57.0720587,30.615865 65.1212121,33.012501 65.1212121,35.8773585 C65.1212121,37.6948586 61.8815999,39.3239095 56.7620895,40.4258654 L56.7501168,40.7292136 L56.7501168,40.7292136 L56.3979167,46.5084889 L62.1666667,46.509434 L62.1666667,49.2829778 L72.0151515,49.2830189 L73,59.4528302 L59.2121212,58.5283019 L59.2113333,50.2074444 L56.1725833,50.2074444 L55.7083659,57.8432598 C55.4635818,61.8646117 52.1475028,65 48.1391866,65 L32.8608134,65 C28.8524972,65 25.5364182,61.8646117 25.2916341,57.8432598 L24.8263333,50.2074444 L21.7875833,50.2074444 L21.7878788,58.5283019 L8,59.4528302 L8.98484848,49.2830189 L18.83225,49.2829778 L18.8333333,46.509434 L24.601,46.5084889 L24.2498832,40.7292136 C24.2390919,40.5519327 24.2344195,40.3756969 24.2356828,40.2007145 L23.5137914,40.019731 C19.39271,38.9419688 16.8636364,37.4832221 16.8636364,35.8773585 C16.8636364,33.0151928 24.8976709,30.6203692 35.655568,30.0154211 C36.0743853,22.0434063 38.0840026,16 40.5,16 Z M46.8333333,47 L34.1666667,47 C32.4802257,47 31.1016913,48.3529966 31.0053756,50.0590378 L31,50.25 L31,56.75 C31,58.480821 32.3183044,59.8956326 33.9806009,59.9944829 L34.1666667,60 L46.8333333,60 C48.5197743,60 49.8983087,58.6470034 49.9946244,56.9409622 L50,56.75 L50,50.25 C50,48.519179 48.6816956,47.1043674 47.0193991,47.0055171 L46.8333333,47 Z M15,52 C13.8954305,52 13,52.8954305 13,54 C13,55.1045695 13.8954305,56 15,56 C16.1045695,56 17,55.1045695 17,54 C17,52.8954305 16.1045695,52 15,52 Z M66,52 C64.8954305,52 64,52.8954305 64,54 C64,55.1045695 64.8954305,56 66,56 C67.1045695,56 68,55.1045695 68,54 C68,52.8954305 67.1045695,52 66,52 Z M43.3202591,37.8051709 C42.5135993,40.2602858 43.2832908,42.5616353 45.0394132,42.9453788 C46.7955355,43.3291223 48.873081,41.649944 49.6797409,39.1948291 C50.4864007,36.7397142 49.7167092,34.4383647 47.9605868,34.0546212 C46.2044645,33.6708777 44.126919,35.350056 43.3202591,37.8051709 Z M33.0394132,34.0546212 C31.2832908,34.4383647 30.5135993,36.7397142 31.3202591,39.1948291 C32.126919,41.649944 34.2044645,43.3291223 35.9605868,42.9453788 C37.7167092,42.5616353 38.4864007,40.2602858 37.6797409,37.8051709 C36.873081,35.350056 34.7955355,33.6708777 33.0394132,34.0546212 Z" id="Shape" fill="#888"></path>
</svg>