<?xml version="1.0" encoding="UTF-8"?>
<svg width="80px" height="80px" viewBox="0 0 80 80" version="1.1" xmlns="http://www.w3.org/2000/svg" xmlns:xlink="http://www.w3.org/1999/xlink">
    <path d="M39.7214871,33 C49.9786827,33 59.0335725,38.1476831 64.443666,46.0005589 C59.0328006,53.8527557 49.9782455,59 39.7214871,59 C29.4647287,59 20.4101736,53.8527557 15,46.0004452 C20.4094018,38.1476831 29.4642915,33 39.7214871,33 Z M48.9005208,40.8178689 L48.9826433,40.9854831 C49.6348853,42.3530533 50,43.8838881 50,45.5 C50,47.7250562 49.3079006,49.788464 48.1272343,51.4866908 C51.2370151,50.3239176 54.0415103,48.533954 56.3863644,46.2708717 L56.6623172,45.9997562 C54.4558401,43.8009425 51.8238136,42.0288856 48.9005208,40.8178689 Z M29.9830483,41.0581357 L29.7828432,41.1481134 C27.28116,42.2877531 25.0094793,43.844361 23.0566098,45.7291283 L22.7807546,46.000341 C25.0305979,48.2423448 27.7228755,50.0406548 30.7152323,51.2529159 C29.6303965,49.5998743 29,47.6235557 29,45.5 C29,43.9124468 29.3523247,42.4071835 29.9830483,41.0581357 Z M40,19 C50.818703,19 60.0323532,25.8720478 63.5139451,35.4891379 C57.1885129,30.0781365 48.9758649,26.8104167 40,26.8104167 C31.0236607,26.8104167 22.8106189,30.078482 16.4857907,35.4896965 C19.9670078,25.8725244 29.1809218,19 40,19 Z" id="reveal" fill="#888"></path>
</svg>