<?xml version="1.0" encoding="UTF-8"?>
<svg width="80px" height="80px" viewBox="0 0 80 80" version="1.1" xmlns="http://www.w3.org/2000/svg" xmlns:xlink="http://www.w3.org/1999/xlink">
    <path d="M38.5,15 C50.9264069,15 61,25.0735931 61,37.5 C61,42.5252928 59.3525357,47.1657996 56.5682398,50.910888 L65.6066017,59.9497475 L60.6568542,64.8994949 L51.5715778,55.8156349 C47.8871467,58.4498584 43.3746008,60 38.5,60 C26.0735931,60 16,49.9264069 16,37.5 C16,25.0735931 26.0735931,15 38.5,15 Z M38.5,22 C29.9395864,22 23,28.9395864 23,37.5 C23,46.0604136 29.9395864,53 38.5,53 C47.0604136,53 54,46.0604136 54,37.5 C54,28.9395864 47.0604136,22 38.5,22 Z" id="search" fill="#888"></path>
</svg>