<?xml version="1.0" encoding="UTF-8"?>
<svg width="80px" height="80px" viewBox="0 0 80 80" version="1.1" xmlns="http://www.w3.org/2000/svg">
    <path d="M36,12 C48.7025492,12 59,22.2974508 59,35 C59,39.2503726 57.8470726,43.2314646 55.836893,46.6476008 C56.0477207,46.7995407 56.2492775,46.9711029 56.4393398,47.1611652 L66.3388348,57.0606602 C68.2914562,59.0132816 68.2914562,62.1791065 66.3388348,64.131728 L65.631728,64.8388348 C63.6791065,66.7914562 60.5132816,66.7914562 58.5606602,64.8388348 L48.6611652,54.9393398 C48.5118597,54.7900343 48.3739708,54.6336355 48.2474983,54.4712282 C44.7022781,56.7064035 40.5022069,58 36,58 C23.2974508,58 13,47.7025492 13,35 C13,22.2974508 23.2974508,12 36,12 Z M36,22 C28.8202983,22 23,27.8202983 23,35 C23,42.1797017 28.8202983,48 36,48 C43.1797017,48 49,42.1797017 49,35 C49,27.8202983 43.1797017,22 36,22 Z" fill="#888"></path>
</svg>
