<?xml version="1.0" encoding="UTF-8"?>
<svg width="727px" height="120px" viewBox="0 0 727 120" version="1.1" xmlns="http://www.w3.org/2000/svg" xmlns:xlink="http://www.w3.org/1999/xlink">
    <g id="Logo" transform="translate(-0.000000, 0.000000)" fill="#FFFFFF">
        <path d="M83.5678756,47.9174633 C83.4475064,51.6524755 81.3410448,54.6040499 78.8616602,54.5097658 C76.3826448,54.4170796 74.469291,51.3144906 74.5900294,47.5802775 C74.7100294,43.8444663 76.8175987,40.8932913 79.2966141,40.9867765 C81.7759987,41.0794626 83.6882448,44.1828506 83.5678756,47.9174633 L83.5678756,47.9174633 Z"></path>
        <ellipse cx="107.225323" cy="44.3613086" rx="4.49187702" ry="6.76676679"></ellipse>
        <path d="M43.3097921,115.059062 C42.0813613,112.604078 42.4812383,109.771957 43.5069613,107.347335 C40.047269,104.872375 37.8843152,101.895631 36.7312075,99.9683986 C12.557669,101.382262 4.0900998,93.5215175 1.26105365,86.5748503 C-1.40848482,80.0193026 0.490838262,72.4905504 3.87483826,68.9624841 C8.97760749,63.3325994 15.8493613,62.2643116 23.7505306,65.8718803 C25.4434536,66.6449308 27.0041921,67.5550129 28.3585306,68.4507127 C28.3289921,54.6992041 31.5700998,45.2456162 32.9968075,41.7539052 C31.8045613,38.8550659 29.2273306,32.3806187 28.6731152,29.2824243 C28.4862844,28.237308 28.7923767,27.160231 29.4898536,26.4095531 C59.4148998,-5.80208038 99.9852383,-0.330401408 104.373546,1.56926517 C105.052192,1.86290449 105.605669,2.41822237 105.927638,3.12735133 C105.986346,3.2551943 112.115946,16.3622945 121.578961,14.9775953 C124.667207,13.7906533 125.847638,12.4954442 124.763207,8.39088597 C124.314961,6.69377059 125.2229,4.92474354 126.791392,4.43973928 C128.359884,3.95513454 129.995207,4.93712833 130.443454,6.63464322 C132.329115,13.7738739 129.9077,18.6466885 123.246407,21.1184523 C123.085054,21.1779792 122.919638,21.2227242 122.751638,21.2514889 C121.836684,21.4088956 120.946469,21.4824053 120.083946,21.4828048 C109.840746,21.4836038 103.341546,11.1015564 101.3045,7.29782861 C98.3635767,6.70176078 89.2960075,5.53399518 77.435946,7.48959306 C65.914469,9.38925964 49.3182844,14.789826 34.8765613,29.6563649 C35.7568075,32.6043439 37.6982229,37.5302932 38.9366229,40.4570981 C39.3213613,41.3659817 39.2907152,42.4174901 38.8539152,43.298408 C38.7996383,43.4098711 33.0237613,55.4814432 34.5165613,74.6471015 C34.618469,75.9546953 33.9712075,77.1967696 32.8845613,77.7792542 C31.7979152,78.3625377 30.4926844,78.1671777 29.592869,77.2870587 C29.5603767,77.255897 25.9636998,73.7889556 21.3357613,71.7075123 C15.7422844,69.1914029 11.402346,69.7670957 8.06708442,73.4661521 C6.66105365,74.9159712 4.84702288,79.5271072 6.66733057,83.9972164 C8.41600749,88.2911421 14.834346,95.2326157 38.1712075,93.4671842 C39.405546,93.3768951 40.5586536,94.1199823 41.0678229,95.3372871 C41.0822229,95.3700469 43.3308383,100.450606 48.8958844,103.317884 C49.7170536,103.740965 50.3118844,104.549172 50.5094229,105.509592 C50.7065921,106.470012 50.4843152,107.475577 49.9060998,108.234645 C48.9405613,109.503486 48.2201921,111.446699 48.504869,112.014802 C48.7995152,112.603678 51.1995152,113.930848 58.6716383,113.047533 C59.349546,112.902511 64.6099767,111.691199 67.5147152,108.461167 C68.277546,107.61141 69.4132998,107.289006 70.4626536,107.622597 C70.6539152,107.682923 90.0034536,113.6444 105.609731,106.698532 C106.620315,106.248684 107.778592,106.43965 108.619331,107.194323 C113.777854,111.824236 121.986223,112.604477 124.348561,111.578537 C125.079269,109.484709 121.909054,106.524346 121.874346,106.493184 C121.084192,105.78845 120.682838,104.687003 120.821669,103.589151 C120.9605,102.4913 121.609607,101.546061 122.545607,101.097012 C122.968377,100.885672 133.399146,95.4731202 136.460069,76.3266384 C136.691946,74.8748218 137.811084,73.7829629 139.169854,73.6826861 C144.205792,73.3111425 147.898469,71.763044 149.848007,69.2061847 C151.630654,66.8674574 151.625484,64.2103213 151.512869,63.035764 C151.234838,61.7984838 150.752992,61.5200259 150.5909,61.4269402 C149.533792,60.8160905 147.542531,61.3222688 146.744254,61.6634497 C146.638284,61.7085942 146.306346,61.8144642 146.306346,61.8144642 C141.003084,63.3545724 137.297854,60.55601 135.289977,53.4918871 L134.886777,52.2689892 C132.569115,45.2252412 130.567146,39.1423131 124.568623,32.2467831 C123.450961,30.9615617 123.507084,28.9388463 124.695269,27.7291322 C125.882715,26.5190186 127.7525,26.5801436 128.870531,27.8657644 C135.717177,35.736097 138.017484,42.7251122 140.452561,50.1248229 L140.8757,51.4088457 C141.866715,54.9181352 142.900561,55.6304602 143.195207,55.7686904 C143.590284,55.9540627 144.080254,55.8418006 144.7253,55.6552298 C145.760623,55.235745 149.873115,53.7947151 153.334654,55.7658938 C154.758777,56.5768976 156.605669,58.2851993 157.314961,61.8172608 C157.578592,64.0101671 157.727023,68.9165405 154.404684,73.2743876 C151.705607,76.8144393 147.489361,79.0093432 141.851207,79.8159524 C139.018469,94.0476712 132.380807,101.389453 128.3093,104.685405 C130.283946,107.696106 131.562223,111.878968 128.881607,115.811338 C128.709546,116.063429 128.504623,116.286754 128.272377,116.474524 C123.846777,120.05133 113.085177,118.348222 106.269915,113.276052 C91.7214844,119.008611 75.5595152,115.572432 70.427946,114.220492 C65.9824075,118.119303 59.8978536,119.306645 59.6150229,119.360179 C57.7699767,119.5875 55.9186536,119.754095 54.0665921,119.754095 C49.6258536,119.754095 45.1810536,118.79807 43.3097921,115.059062 Z"></path>
    </g>
    <g id="Mewmew" transform="translate(194.953846, 28.800000)" fill="#FFFFFF">
        <path d="M530.2355,0.518390219 L497.276327,60.7970244 L479.58079,60.7970244 L478.905101,19.5665275 L456.886311,60.7970244 L438.785361,60.7970244 L438.379947,0.518390219 L456.076062,0.518390219 L456.481475,41.7488871 L478.905101,0.518390219 L496.194648,0.518390219 L497.276327,41.6277775 L519.4291,0.518390219 L530.2355,0.518390219 L530.2355,0.518390219 Z"></path>
        <path d="M433.643486,40.1466196 C423.107362,57.5074139 412.030686,61.9674056 396.631336,61.605247 C371.100697,60.8821 370.696439,32.0679674 383.257897,14.2256602 C393.525478,0.000258248437 411.087032,-3.01285436 418.784109,2.77290692 C425.674979,7.71616681 425.809539,16.8789545 421.755984,23.9916555 C415.677673,33.9981147 404.3313,37.7355445 392.714074,37.3733859 C392.848634,43.1609024 395.279958,49.9114448 401.088572,52.4447996 C411.490713,56.7842669 422.43225,49.5522115 428.780837,40.1472047 L433.643486,40.1472047 L433.643486,40.1466196 Z M393.120642,31.706979 C414.461433,32.3101866 416.893913,9.40409494 413.516047,6.99301979 C410.815024,5.18456715 404.871273,7.47628794 400.008047,14.3479399 C397.171887,18.204724 394.740562,23.630667 393.254625,30.3806243 C393.254625,30.8621373 393.120642,31.3454054 393.120642,31.706979 L393.120642,31.706979 Z"></path>
        <path d="M376.265842,40.3935408 C365.459442,66.3139152 328.043034,69.9296503 333.715354,43.0450799 C335.606128,33.7623528 337.768909,24.1174671 339.929958,13.6289098 C343.171532,-0.11497916 328.583585,10.1325291 323.721514,21.2231238 C323.585798,21.4653429 323.449506,21.7058068 323.314945,22.1879049 C322.504696,25.9247496 316.290093,57.75375 315.615559,60.8873871 L297.784884,60.8873871 C301.567008,42.0808839 304.404323,27.1305797 307.105346,13.9910684 C309.671231,1.21137546 296.028093,8.80675952 290.489756,18.9337432 C290.355195,19.0542677 290.355195,19.1742072 290.220058,19.4158413 L280.899018,60.8873871 L262.258672,60.8873871 L275.766094,0.608752937 L294.407018,0.608752937 L292.650805,8.80617445 C303.457782,-2.76710333 322.91011,-4.21339738 324.125194,12.3025552 C338.30946,-4.93712948 362.623282,-6.14237452 356.139558,22.1879049 L353.977931,32.9180962 C352.897984,38.1024051 352.763424,38.4628084 350.73578,48.2288037 C348.440749,57.75375 366.541699,51.8462941 370.998935,40.3929557 L376.265842,40.3929557 L376.265842,40.3935408 Z"></path>
        <path d="M262.342569,1.03678044 L230.156107,60.8048537 L212.876955,60.8048537 L212.218015,19.924171 L190.716675,60.8048537 L173.040773,60.8048537 L172.644023,1.03678044 L189.923751,1.03678044 L190.321079,41.9185806 L212.218592,1.03678044 L229.102148,1.03678044 L230.156107,41.797898 L251.790274,1.03678044 L262.342569,1.03678044 L262.342569,1.03678044 Z"></path>
        <path d="M166.534558,40.3230129 C156.246763,57.5364906 145.429391,61.9587269 130.39214,61.6000313 C105.460958,60.8837575 105.065363,32.3149381 117.332867,14.6243169 C127.358471,0.519534385 144.505372,-2.46903689 152.025153,3.26729912 C158.752009,8.16835487 158.884837,17.2536339 154.927727,24.3057458 C148.991483,34.2279813 137.910188,37.9328263 126.566125,37.5746894 C126.698375,43.3127016 129.073103,50.0055592 134.744269,52.515311 C144.902123,56.817982 155.585512,49.6463049 161.786256,40.3230129 L166.534558,40.3230129 L166.534558,40.3230129 Z M126.962298,31.9562425 C147.804697,32.552951 150.17827,9.84115024 146.880678,7.45152239 C144.243182,5.65860311 138.438611,7.92922447 133.689155,14.7427647 C130.919986,18.5677337 128.54468,23.9470502 127.093971,30.6410253 C127.093971,31.1198448 126.962298,31.5969882 126.962298,31.9562425 L126.962298,31.9562425 Z"></path>
        <path d="M91.5920152,24.7602517 C90.4792899,30.0242943 88.2780904,35.4691525 84.8383989,51.1437522 C81.3987074,66.8183518 94.0515159,73.3979398 99.2389699,73.3979356 C116.172923,73.418601 111.740212,59.3512598 111.740212,59.3512598 C120.047718,59.5859205 125.361404,64.6814094 123.371876,69.4355229 C119.861759,76.2261558 108.207114,78.4050194 98.4945212,78.1781807 C86.5590906,77.4939762 77.7119942,72.7159732 72.9898206,65.9224421 C68.2676469,59.128911 68.8637699,50.9980692 71.384744,39.5754961 C73.9057181,28.1529229 76.7875343,17.5860353 77.0927482,16.0766937 C80.2604001,2.45017193 64.9167147,10.5641886 60.1678357,21.5608347 C60.0355855,21.7994064 59.9039128,22.0390955 59.7716626,22.5167976 C58.9804715,26.2222013 52.9119782,57.7801508 52.2530373,60.8877285 L34.8410583,60.8877285 C38.5342459,42.2394684 41.3051472,27.418412 43.9426433,14.3891576 C46.4496218,1.71803996 33.1258484,9.24953012 27.718606,19.2896546 C27.5857783,19.4092198 27.5857783,19.528785 27.4541056,19.7684741 L18.3525206,60.8877285 L0.148772983,60.8877285 L13.3402962,1.11965525 L31.5440438,1.11965525 L29.8282564,9.24953012 C40.3799734,-2.22705291 59.3760671,-3.66071788 60.5634312,12.7158035 C69.502773,1.68325638 82.5555594,-2.72549749 88.9909564,3.08709476 C95.1067886,8.61104902 92.7047404,19.4962092 91.5920152,24.7602517 Z"></path>
    </g>
</svg>
